<svg id="Layer_1" data-name="Layer 1" xmlns="http://www.w3.org/2000/svg" width="19.46mm" height="35.07mm" viewBox="0 0 55.15 99.41"><title>stars</title><path id="path" d="M38.34,16.42h3.31L39,18.51l1.1,3.15-2.59-2-2.7,1.88.88-3-2.76-2.09h3.37l1.21-3.15,1.1,3.15M26.21,20.55h3.42l-2.7,1.93,1,3.26L25,24l-2.71,2,1-3.25-2.71-1.93h3.31L25,17.63l1,3.2m25,0h3.42l-2.7,1.93,1,3.25L50,24l-2.7,2,1.21-3.53-2.65-1.93h3.31l.83-3.2,1,3.2m-33.75,8.5h3.69l-2.7,2,1,3.14-2.7-2-2.7,2,1-3.14-3-2H15.4l1-3.15,1,3.15m42.14,0h3.31l-2.7,2,1,3.14-2.7-2-2.7,2,1-3.14-2.7-2h3.42l1-3.15,1.1,3.15M15.4,39.41h3.36L16,41.4l1,3.14-2.75-2-2.82,2,1.11-3.14-2.71-2h3.31l1.11-3.19,1.1,3.19m46.33,0H65l-2.71,2,1,3.14-2.7-2-2.65,2,1-3.14-2.7-2h3.25l1-3.19,1.05,3.19M17,50.72h3.31l-2.7,1.93,1,3.2-2.7-2-2.7,2,1-3.2-2.7-1.93H15l1-3.25L17,50.72m42.85,0h3.42l-2.81,1.93,1.1,3.2-2.7-2-2.76,2,1.11-3.2L54.5,50.72h3.31l1-3.25,1,3.25m-34.8,8.77h3.37l-2.65,1.93,1,3.2-2.7-2-2.7,2,1-3.2-2.7-1.93h3.42l1-3.25,1,3.25m26.36,0h3.31l-2.7,2,1,3.14-2.64-2-2.71,1.94.83-3-2.7-2h3.36l1.05-3.2,1,3.2m-12.91,3h3.31L39,64.57l1.1,3.19-2.59-1.87-2.92,2.26,1.1-3.2-2.76-2.32h3.37l1.21-3.14,1.1,3.26" transform="translate(-9.88 -13.27)" style="fill:#f1bd1a"/><path d="M19.25,112.19V87.93h3.42l7.77,12.27a68.42,68.42,0,0,1,4.36,7.88l.07,0c-.29-3.24-.36-6.19-.36-10V87.93h3v24.26H34.29l-7.7-12.31a79.38,79.38,0,0,1-4.54-8.1l-.1,0c.18,3.06.25,6,.25,10v10.37Z" transform="translate(-9.88 -13.27)" style="fill:#fff;stroke:#fff;stroke-miterlimit:10"/><path d="M42.93,87.93h3.14v21.63H56.43v2.63H42.93Z" transform="translate(-9.88 -13.27)" style="fill:#fff;stroke:#fff;stroke-miterlimit:10"/></svg>